<svg width="299" height="64" viewBox="0 0 299 64" fill="none" xmlns="http://www.w3.org/2000/svg">
<g clip-path="url(#clip0_53_65)">
<path d="M6.52374 47.7995L23.1125 51.2683H45.0773L59.7461 45.7216L63.2021 33.2331L54.9077 22.8309L47.3045 20.7488L43.8485 13.12L32.4437 7.72266L19.6565 13.12L14.8181 22.8309L6.52374 26.8501L0.994141 36.7019L6.52374 47.7995Z" fill="#E6E7E8" stroke="#1D1A05" stroke-width="3" stroke-miterlimit="10" stroke-linecap="round"/>
<path d="M6.52368 47.7995L15.1637 43.3237L23.1125 51.2683L6.52368 47.7995Z" fill="#001E33"/>
<path d="M15.1637 43.3237L23.1125 51.2683L38.3189 44.3349L15.1637 43.3237Z" fill="#003C66"/>
<path d="M23.1125 51.2683H45.0773L38.3189 44.335L23.1125 51.2683Z" fill="#001E33"/>
<path d="M38.319 44.335L59.7462 45.7216L45.0774 51.2683L38.319 44.335Z" fill="#003C66"/>
<path d="M15.1637 43.3238L0.994141 36.7019L6.52374 47.7995L15.1637 43.3238Z" fill="#003C66"/>
<path d="M0.994141 36.7018L21.0389 30.4597L15.1637 43.3237L0.994141 36.7018Z" fill="#004373"/>
<path d="M21.0389 30.4597L15.1637 43.3237L38.3189 44.3349L21.0389 30.4597Z" fill="#004A80"/>
<path d="M38.3189 44.3349L46.6133 31.1552L21.0389 30.4597L38.3189 44.3349Z" fill="#0077CC"/>
<path d="M38.319 44.3349L46.6134 31.1552L59.7462 45.7216L38.319 44.3349Z" fill="#005999"/>
<path d="M59.7461 45.7216L63.2021 33.233L46.6133 31.1552L59.7461 45.7216Z" fill="#0077CC"/>
<path d="M0.994141 36.7018L6.52374 26.8501L21.0389 30.4597L0.994141 36.7018Z" fill="#005999"/>
<path d="M14.8181 22.8309L21.0389 30.4597L6.52368 26.8501L14.8181 22.8309Z" fill="#0077CC"/>
<path d="M14.8181 22.8309L19.6565 13.12L21.0389 30.4597L14.8181 22.8309Z" fill="#005999"/>
<path d="M19.6565 13.12L36.5909 20.7787L21.0389 30.4597L19.6565 13.12Z" fill="#0077CC"/>
<path d="M46.6133 31.1552L21.0389 30.4598L36.5909 20.7787L46.6133 31.1552Z" fill="#33AAFF"/>
<path d="M46.6133 31.1552L54.9077 22.8309L63.2021 33.2331L46.6133 31.1552Z" fill="#33AAFF"/>
<path d="M54.9077 22.8309L47.3045 20.7488L46.6133 31.1552L54.9077 22.8309Z" fill="#CCEAFF"/>
<path d="M36.5909 20.7786L47.3045 20.7488L46.6133 31.1552L36.5909 20.7786Z" fill="#99D5FF"/>
<path d="M19.6565 13.12L32.4437 7.72266L36.5909 20.7787L19.6565 13.12Z" fill="#33AAFF"/>
<path d="M32.4437 7.72266L43.8485 13.12L36.5909 20.7787L32.4437 7.72266Z" fill="#99D5FF"/>
<path d="M43.8485 13.12L47.3045 20.7488L36.5909 20.7787L43.8485 13.12Z" fill="#0077CC"/>
</g>
<path d="M93.92 50.96C90.752 50.96 88.032 50.416 85.76 49.328C83.488 48.208 81.616 46.752 80.144 44.96C78.672 43.136 77.584 41.168 76.88 39.056C76.176 36.944 75.824 34.896 75.824 32.912V31.856C75.824 29.648 76.176 27.488 76.88 25.376C77.616 23.232 78.72 21.296 80.192 19.568C81.696 17.84 83.568 16.464 85.808 15.44C88.048 14.416 90.672 13.904 93.68 13.904C96.88 13.904 99.712 14.512 102.176 15.728C104.672 16.912 106.672 18.592 108.176 20.768C109.68 22.912 110.56 25.408 110.816 28.256H101.888C101.664 27.04 101.184 25.984 100.448 25.088C99.712 24.192 98.768 23.504 97.616 23.024C96.464 22.512 95.152 22.256 93.68 22.256C92.304 22.256 91.056 22.496 89.936 22.976C88.848 23.456 87.92 24.144 87.152 25.04C86.416 25.904 85.84 26.96 85.424 28.208C85.04 29.456 84.848 30.864 84.848 32.432C84.848 34 85.04 35.408 85.424 36.656C85.84 37.904 86.432 38.976 87.2 39.872C88 40.768 88.96 41.456 90.08 41.936C91.2 42.384 92.48 42.608 93.92 42.608C96.16 42.608 98.048 42.064 99.584 40.976C101.152 39.888 102.096 38.432 102.416 36.608H111.344C111.056 39.232 110.176 41.632 108.704 43.808C107.232 45.984 105.248 47.728 102.752 49.04C100.256 50.32 97.312 50.96 93.92 50.96ZM128.852 50.96C126.516 50.96 124.436 50.608 122.612 49.904C120.788 49.2 119.236 48.224 117.956 46.976C116.708 45.728 115.748 44.288 115.076 42.656C114.436 41.024 114.116 39.28 114.116 37.424V36.272C114.116 34.352 114.452 32.56 115.124 30.896C115.828 29.232 116.82 27.776 118.1 26.528C119.38 25.28 120.932 24.304 122.756 23.6C124.58 22.896 126.612 22.544 128.852 22.544C131.124 22.544 133.156 22.896 134.948 23.6C136.772 24.304 138.324 25.28 139.604 26.528C140.884 27.776 141.86 29.232 142.532 30.896C143.236 32.56 143.588 34.352 143.588 36.272V37.424C143.588 39.28 143.252 41.024 142.58 42.656C141.94 44.288 140.98 45.728 139.7 46.976C138.452 48.224 136.916 49.2 135.092 49.904C133.268 50.608 131.188 50.96 128.852 50.96ZM128.852 43.664C130.196 43.664 131.3 43.376 132.164 42.8C133.06 42.224 133.732 41.424 134.18 40.4C134.628 39.344 134.852 38.16 134.852 36.848C134.852 35.472 134.612 34.272 134.132 33.248C133.684 32.192 133.012 31.36 132.116 30.752C131.22 30.144 130.132 29.84 128.852 29.84C127.572 29.84 126.484 30.144 125.588 30.752C124.692 31.36 124.004 32.192 123.524 33.248C123.076 34.272 122.852 35.472 122.852 36.848C122.852 38.16 123.076 39.344 123.524 40.4C123.972 41.424 124.644 42.224 125.54 42.8C126.436 43.376 127.54 43.664 128.852 43.664ZM148.371 50V23.504H155.283V35.024H155.187C155.187 31.312 155.955 28.4 157.491 26.288C159.059 24.176 161.299 23.12 164.211 23.12H165.267V30.608H163.251C161.299 30.608 159.779 31.136 158.691 32.192C157.635 33.248 157.107 34.768 157.107 36.752V50H148.371ZM169.963 50V23.504H178.699V50H169.963ZM166.603 29.84V23.504H178.699V29.84H166.603ZM173.563 21.392C171.963 21.392 170.779 20.992 170.011 20.192C169.275 19.36 168.907 18.304 168.907 17.024C168.907 15.744 169.275 14.704 170.011 13.904C170.779 13.072 171.947 12.656 173.515 12.656C175.115 12.656 176.283 13.072 177.019 13.904C177.755 14.704 178.123 15.744 178.123 17.024C178.123 18.304 177.755 19.36 177.019 20.192C176.283 20.992 175.131 21.392 173.563 21.392ZM197.745 50.384C194.865 50.384 192.561 50.032 190.833 49.328C189.137 48.624 187.905 47.456 187.137 45.824C186.369 44.192 185.985 41.984 185.985 39.2L186.033 16.592H194.097L194.049 39.44C194.049 40.624 194.353 41.536 194.961 42.176C195.601 42.784 196.513 43.088 197.697 43.088H201.345V50.384H197.745ZM182.145 29.84V23.504H201.345V29.84H182.145ZM206.027 50V14.96H214.763V34.928H213.611C213.611 32.24 213.947 29.984 214.619 28.16C215.291 26.336 216.267 24.96 217.547 24.032C218.859 23.104 220.475 22.64 222.395 22.64H222.779C225.659 22.64 227.851 23.68 229.355 25.76C230.891 27.84 231.659 30.896 231.659 34.928V50H222.923V34.592C222.923 33.376 222.555 32.384 221.819 31.616C221.083 30.816 220.107 30.416 218.891 30.416C217.675 30.416 216.683 30.816 215.915 31.616C215.147 32.384 214.763 33.408 214.763 34.688V50H206.027ZM250.727 50.96C248.391 50.96 246.311 50.608 244.487 49.904C242.663 49.2 241.111 48.224 239.831 46.976C238.583 45.728 237.623 44.288 236.951 42.656C236.311 41.024 235.991 39.28 235.991 37.424V36.272C235.991 34.352 236.327 32.56 236.999 30.896C237.703 29.232 238.695 27.776 239.975 26.528C241.255 25.28 242.807 24.304 244.631 23.6C246.455 22.896 248.487 22.544 250.727 22.544C252.999 22.544 255.031 22.896 256.823 23.6C258.647 24.304 260.199 25.28 261.479 26.528C262.759 27.776 263.735 29.232 264.407 30.896C265.111 32.56 265.463 34.352 265.463 36.272V37.424C265.463 39.28 265.127 41.024 264.455 42.656C263.815 44.288 262.855 45.728 261.575 46.976C260.327 48.224 258.791 49.2 256.967 49.904C255.143 50.608 253.063 50.96 250.727 50.96ZM250.727 43.664C252.071 43.664 253.175 43.376 254.039 42.8C254.935 42.224 255.607 41.424 256.055 40.4C256.503 39.344 256.727 38.16 256.727 36.848C256.727 35.472 256.487 34.272 256.007 33.248C255.559 32.192 254.887 31.36 253.991 30.752C253.095 30.144 252.007 29.84 250.727 29.84C249.447 29.84 248.359 30.144 247.463 30.752C246.567 31.36 245.879 32.192 245.399 33.248C244.951 34.272 244.727 35.472 244.727 36.848C244.727 38.16 244.951 39.344 245.399 40.4C245.847 41.424 246.519 42.224 247.415 42.8C248.311 43.376 249.415 43.664 250.727 43.664ZM280.758 50.864C276.918 50.864 273.894 50.08 271.686 48.512C269.478 46.912 268.294 44.672 268.134 41.792H275.814C275.942 42.592 276.438 43.28 277.302 43.856C278.166 44.432 279.382 44.72 280.95 44.72C282.07 44.72 283.03 44.56 283.83 44.24C284.662 43.888 285.078 43.328 285.078 42.56C285.078 41.888 284.758 41.344 284.118 40.928C283.478 40.48 282.31 40.176 280.614 40.016L278.79 39.824C275.398 39.472 272.902 38.544 271.302 37.04C269.702 35.536 268.902 33.648 268.902 31.376C268.902 29.424 269.382 27.824 270.342 26.576C271.302 25.296 272.63 24.336 274.326 23.696C276.022 23.056 277.958 22.736 280.134 22.736C283.686 22.736 286.55 23.52 288.726 25.088C290.902 26.624 292.054 28.848 292.182 31.76H284.502C284.374 30.96 283.942 30.288 283.206 29.744C282.47 29.168 281.414 28.88 280.038 28.88C279.046 28.88 278.23 29.056 277.59 29.408C276.982 29.76 276.678 30.256 276.678 30.896C276.678 31.568 276.966 32.064 277.542 32.384C278.15 32.704 279.11 32.944 280.422 33.104L282.246 33.296C285.638 33.648 288.246 34.592 290.07 36.128C291.926 37.632 292.854 39.616 292.854 42.08C292.854 43.904 292.358 45.472 291.366 46.784C290.406 48.096 289.014 49.104 287.19 49.808C285.398 50.512 283.254 50.864 280.758 50.864Z" fill="#243842"/>
<defs>
<clipPath id="clip0_53_65">
<rect width="64" height="64" fill="white"/>
</clipPath>
</defs>
</svg>
