<svg width="1388" height="288" viewBox="0 0 1388 288" fill="none" xmlns="http://www.w3.org/2000/svg">
<path d="M215.048 161.88L176.785 150.129L38.8352 288L201.333 205.262L215.048 161.88Z" fill="#D91009"/>
<path d="M91.4641 151.57L107.751 139.611L120.233 134.56L130.611 135.885L172.576 148.856L37.2506 284.105" fill="#D91009"/>
<path d="M0 0L140.3 120.264L132.273 132.223L119.701 130.574L106.18 136.04L0 0Z" fill="#D91009"/>
<path d="M164.913 90.3473L136.092 133.56L175.824 145.766L164.913 90.3473Z" fill="#D91009"/>
<path d="M216.295 158.192L180.058 147.103L168.589 88.8411L216.295 158.192Z" fill="#D91009"/>
<path d="M229.634 219.558L206.762 200.652L219.036 162.217L228.115 175.306L229.634 219.558Z" fill="#D91009"/>
<path d="M317.579 110.24L323.774 129.756L233.531 219.558L231.855 169.593L317.579 110.24Z" fill="#D91009"/>
<path d="M321.293 109.279L339.711 114.979L374 177.578L330.45 132.262L327.437 128.289L321.293 109.279Z" fill="#D91009"/>
<path d="M227.608 167.762L251.026 151.557L246.987 134.898L184.11 92.1782L174.551 85.6339L171.914 86.8285L227.608 167.762Z" fill="#D91009"/>
<path d="M299.551 21.996L182.746 86.5169L213.801 107.682L299.551 21.996Z" fill="#D91009"/>
<path d="M247.052 130.275L217.152 109.889L302.59 24.4761L272.249 109.669L247.052 130.275Z" fill="#D91009"/>
<path d="M510.159 238.92C504.239 238.92 498.999 238.08 494.439 236.4C489.959 234.64 486.159 232.2 483.039 229.08C479.999 225.88 477.679 222.04 476.079 217.56C474.479 213.08 473.679 208.08 473.679 202.56V138.24H463.119C461.199 138.24 459.559 137.64 458.199 136.44C456.839 135.16 456.159 133.32 456.159 130.92V116.4L475.959 112.56L483.279 82.2C484.239 78.36 486.959 76.44 491.439 76.44H510.879V112.8H541.719V138.24H510.879V200.04C510.879 202.92 511.559 205.32 512.919 207.24C514.359 209.08 516.399 210 519.039 210C520.399 210 521.519 209.88 522.399 209.64C523.359 209.32 524.159 209 524.799 208.68C525.519 208.28 526.159 207.96 526.719 207.72C527.359 207.4 528.079 207.24 528.879 207.24C529.999 207.24 530.879 207.52 531.519 208.08C532.239 208.56 532.959 209.36 533.679 210.48L544.959 228.12C540.159 231.72 534.759 234.44 528.759 236.28C522.759 238.04 516.559 238.92 510.159 238.92ZM621.948 186.36C614.508 186.68 608.388 187.32 603.588 188.28C598.788 189.24 594.988 190.44 592.188 191.88C589.388 193.32 587.428 194.96 586.308 196.8C585.268 198.64 584.748 200.64 584.748 202.8C584.748 207.04 585.908 210.04 588.228 211.8C590.548 213.48 593.948 214.32 598.428 214.32C603.228 214.32 607.428 213.48 611.028 211.8C614.628 210.12 618.268 207.4 621.948 203.64V186.36ZM554.988 129.84C562.508 123.2 570.828 118.28 579.948 115.08C589.148 111.8 598.988 110.16 609.468 110.16C616.988 110.16 623.748 111.4 629.748 113.88C635.828 116.28 640.948 119.68 645.108 124.08C649.348 128.4 652.588 133.56 654.828 139.56C657.068 145.56 658.188 152.12 658.188 159.24V237H641.148C637.628 237 634.948 236.52 633.108 235.56C631.348 234.6 629.868 232.6 628.668 229.56L626.028 222.72C622.908 225.36 619.908 227.68 617.028 229.68C614.148 231.68 611.148 233.4 608.028 234.84C604.988 236.2 601.708 237.2 598.188 237.84C594.748 238.56 590.908 238.92 586.668 238.92C580.988 238.92 575.828 238.2 571.188 236.76C566.548 235.24 562.588 233.04 559.308 230.16C556.108 227.28 553.628 223.72 551.868 219.48C550.108 215.16 549.228 210.2 549.228 204.6C549.228 200.12 550.348 195.6 552.588 191.04C554.828 186.4 558.708 182.2 564.228 178.44C569.748 174.6 577.188 171.4 586.548 168.84C595.908 166.28 607.708 164.84 621.948 164.52V159.24C621.948 151.96 620.428 146.72 617.388 143.52C614.428 140.24 610.188 138.6 604.668 138.6C600.268 138.6 596.668 139.08 593.868 140.04C591.068 141 588.548 142.08 586.308 143.28C584.148 144.48 582.028 145.56 579.948 146.52C577.868 147.48 575.388 147.96 572.508 147.96C569.948 147.96 567.788 147.32 566.028 146.04C564.268 144.76 562.828 143.24 561.708 141.48L554.988 129.84ZM719.167 57.36V158.04H724.687C727.007 158.04 728.767 157.72 729.967 157.08C731.167 156.36 732.367 155.2 733.567 153.6L757.087 118.56C758.527 116.56 760.167 115.08 762.007 114.12C763.847 113.08 766.207 112.56 769.087 112.56H803.167L771.007 156.84C767.967 160.84 764.367 164.12 760.207 166.68C762.047 168.04 763.727 169.64 765.247 171.48C766.767 173.24 768.207 175.24 769.567 177.48L804.607 237H771.007C768.207 237 765.807 236.56 763.807 235.68C761.807 234.72 760.127 233.08 758.767 230.76L735.247 186.72C734.127 184.72 732.967 183.44 731.767 182.88C730.567 182.24 728.767 181.92 726.367 181.92H719.167V237H681.967V57.36H719.167ZM880.23 186.36C872.79 186.68 866.67 187.32 861.87 188.28C857.07 189.24 853.27 190.44 850.47 191.88C847.67 193.32 845.71 194.96 844.59 196.8C843.55 198.64 843.03 200.64 843.03 202.8C843.03 207.04 844.19 210.04 846.51 211.8C848.83 213.48 852.23 214.32 856.71 214.32C861.51 214.32 865.71 213.48 869.31 211.8C872.91 210.12 876.55 207.4 880.23 203.64V186.36ZM813.27 129.84C820.79 123.2 829.11 118.28 838.23 115.08C847.43 111.8 857.27 110.16 867.75 110.16C875.27 110.16 882.03 111.4 888.03 113.88C894.11 116.28 899.23 119.68 903.39 124.08C907.63 128.4 910.87 133.56 913.11 139.56C915.35 145.56 916.47 152.12 916.47 159.24V237H899.43C895.91 237 893.23 236.52 891.39 235.56C889.63 234.6 888.15 232.6 886.95 229.56L884.31 222.72C881.19 225.36 878.19 227.68 875.31 229.68C872.43 231.68 869.43 233.4 866.31 234.84C863.27 236.2 859.99 237.2 856.47 237.84C853.03 238.56 849.19 238.92 844.95 238.92C839.27 238.92 834.11 238.2 829.47 236.76C824.83 235.24 820.87 233.04 817.59 230.16C814.39 227.28 811.91 223.72 810.15 219.48C808.39 215.16 807.51 210.2 807.51 204.6C807.51 200.12 808.63 195.6 810.87 191.04C813.11 186.4 816.99 182.2 822.51 178.44C828.03 174.6 835.47 171.4 844.83 168.84C854.19 166.28 865.99 164.84 880.23 164.52V159.24C880.23 151.96 878.71 146.72 875.67 143.52C872.71 140.24 868.47 138.6 862.95 138.6C858.55 138.6 854.95 139.08 852.15 140.04C849.35 141 846.83 142.08 844.59 143.28C842.43 144.48 840.31 145.56 838.23 146.52C836.15 147.48 833.67 147.96 830.79 147.96C828.23 147.96 826.07 147.32 824.31 146.04C822.55 144.76 821.11 143.24 819.99 141.48L813.27 129.84ZM975.048 131.76C978.888 125.04 983.288 119.76 988.248 115.92C993.288 112.08 999.048 110.16 1005.53 110.16C1011.13 110.16 1015.69 111.48 1019.21 114.12L1016.81 141.48C1016.41 143.24 1015.73 144.44 1014.77 145.08C1013.89 145.72 1012.65 146.04 1011.05 146.04C1010.41 146.04 1009.57 146 1008.53 145.92C1007.49 145.84 1006.41 145.76 1005.29 145.68C1004.17 145.52 1003.01 145.4 1001.81 145.32C1000.69 145.16 999.648 145.08 998.688 145.08C993.248 145.08 988.888 146.52 985.608 149.4C982.408 152.28 979.688 156.28 977.448 161.4V237H940.248V112.56H962.328C964.168 112.56 965.688 112.72 966.888 113.04C968.168 113.36 969.208 113.88 970.008 114.6C970.888 115.24 971.528 116.12 971.928 117.24C972.408 118.36 972.808 119.72 973.128 121.32L975.048 131.76ZM1094.92 186.36C1087.48 186.68 1081.36 187.32 1076.56 188.28C1071.76 189.24 1067.96 190.44 1065.16 191.88C1062.36 193.32 1060.4 194.96 1059.28 196.8C1058.24 198.64 1057.72 200.64 1057.72 202.8C1057.72 207.04 1058.88 210.04 1061.2 211.8C1063.52 213.48 1066.92 214.32 1071.4 214.32C1076.2 214.32 1080.4 213.48 1084 211.8C1087.6 210.12 1091.24 207.4 1094.92 203.64V186.36ZM1027.96 129.84C1035.48 123.2 1043.8 118.28 1052.92 115.08C1062.12 111.8 1071.96 110.16 1082.44 110.16C1089.96 110.16 1096.72 111.4 1102.72 113.88C1108.8 116.28 1113.92 119.68 1118.08 124.08C1122.32 128.4 1125.56 133.56 1127.8 139.56C1130.04 145.56 1131.16 152.12 1131.16 159.24V237H1114.12C1110.6 237 1107.92 236.52 1106.08 235.56C1104.32 234.6 1102.84 232.6 1101.64 229.56L1099 222.72C1095.88 225.36 1092.88 227.68 1090 229.68C1087.12 231.68 1084.12 233.4 1081 234.84C1077.96 236.2 1074.68 237.2 1071.16 237.84C1067.72 238.56 1063.88 238.92 1059.64 238.92C1053.96 238.92 1048.8 238.2 1044.16 236.76C1039.52 235.24 1035.56 233.04 1032.28 230.16C1029.08 227.28 1026.6 223.72 1024.84 219.48C1023.08 215.16 1022.2 210.2 1022.2 204.6C1022.2 200.12 1023.32 195.6 1025.56 191.04C1027.8 186.4 1031.68 182.2 1037.2 178.44C1042.72 174.6 1050.16 171.4 1059.52 168.84C1068.88 166.28 1080.68 164.84 1094.92 164.52V159.24C1094.92 151.96 1093.4 146.72 1090.36 143.52C1087.4 140.24 1083.16 138.6 1077.64 138.6C1073.24 138.6 1069.64 139.08 1066.84 140.04C1064.04 141 1061.52 142.08 1059.28 143.28C1057.12 144.48 1055 145.56 1052.92 146.52C1050.84 147.48 1048.36 147.96 1045.48 147.96C1042.92 147.96 1040.76 147.32 1039 146.04C1037.24 144.76 1035.8 143.24 1034.68 141.48L1027.96 129.84ZM1149.9 218.16C1149.9 215.28 1150.42 212.6 1151.46 210.12C1152.58 207.64 1154.06 205.48 1155.9 203.64C1157.82 201.8 1160.06 200.36 1162.62 199.32C1165.18 198.2 1167.98 197.64 1171.02 197.64C1173.98 197.64 1176.74 198.2 1179.3 199.32C1181.86 200.36 1184.1 201.8 1186.02 203.64C1187.94 205.48 1189.42 207.64 1190.46 210.12C1191.58 212.6 1192.14 215.28 1192.14 218.16C1192.14 221.04 1191.58 223.76 1190.46 226.32C1189.42 228.8 1187.94 230.96 1186.02 232.8C1184.1 234.64 1181.86 236.08 1179.3 237.12C1176.74 238.16 1173.98 238.68 1171.02 238.68C1167.98 238.68 1165.18 238.16 1162.62 237.12C1160.06 236.08 1157.82 234.64 1155.9 232.8C1154.06 230.96 1152.58 228.8 1151.46 226.32C1150.42 223.76 1149.9 221.04 1149.9 218.16ZM1276.56 186.36C1269.12 186.68 1263 187.32 1258.2 188.28C1253.4 189.24 1249.6 190.44 1246.8 191.88C1244 193.32 1242.04 194.96 1240.92 196.8C1239.88 198.64 1239.36 200.64 1239.36 202.8C1239.36 207.04 1240.52 210.04 1242.84 211.8C1245.16 213.48 1248.56 214.32 1253.04 214.32C1257.84 214.32 1262.04 213.48 1265.64 211.8C1269.24 210.12 1272.88 207.4 1276.56 203.64V186.36ZM1209.6 129.84C1217.12 123.2 1225.44 118.28 1234.56 115.08C1243.76 111.8 1253.6 110.16 1264.08 110.16C1271.6 110.16 1278.36 111.4 1284.36 113.88C1290.44 116.28 1295.56 119.68 1299.72 124.08C1303.96 128.4 1307.2 133.56 1309.44 139.56C1311.68 145.56 1312.8 152.12 1312.8 159.24V237H1295.76C1292.24 237 1289.56 236.52 1287.72 235.56C1285.96 234.6 1284.48 232.6 1283.28 229.56L1280.64 222.72C1277.52 225.36 1274.52 227.68 1271.64 229.68C1268.76 231.68 1265.76 233.4 1262.64 234.84C1259.6 236.2 1256.32 237.2 1252.8 237.84C1249.36 238.56 1245.52 238.92 1241.28 238.92C1235.6 238.92 1230.44 238.2 1225.8 236.76C1221.16 235.24 1217.2 233.04 1213.92 230.16C1210.72 227.28 1208.24 223.72 1206.48 219.48C1204.72 215.16 1203.84 210.2 1203.84 204.6C1203.84 200.12 1204.96 195.6 1207.2 191.04C1209.44 186.4 1213.32 182.2 1218.84 178.44C1224.36 174.6 1231.8 171.4 1241.16 168.84C1250.52 166.28 1262.32 164.84 1276.56 164.52V159.24C1276.56 151.96 1275.04 146.72 1272 143.52C1269.04 140.24 1264.8 138.6 1259.28 138.6C1254.88 138.6 1251.28 139.08 1248.48 140.04C1245.68 141 1243.16 142.08 1240.92 143.28C1238.76 144.48 1236.64 145.56 1234.56 146.52C1232.48 147.48 1230 147.96 1227.12 147.96C1224.56 147.96 1222.4 147.32 1220.64 146.04C1218.88 144.76 1217.44 143.24 1216.32 141.48L1209.6 129.84ZM1374.62 112.56V237H1337.42V112.56H1374.62ZM1378.46 78.48C1378.46 81.44 1377.86 84.24 1376.66 86.88C1375.46 89.44 1373.82 91.72 1371.74 93.72C1369.66 95.64 1367.22 97.2 1364.42 98.4C1361.7 99.52 1358.78 100.08 1355.66 100.08C1352.62 100.08 1349.78 99.52 1347.14 98.4C1344.5 97.2 1342.14 95.64 1340.06 93.72C1338.06 91.72 1336.46 89.44 1335.26 86.88C1334.14 84.24 1333.58 81.44 1333.58 78.48C1333.58 75.44 1334.14 72.6 1335.26 69.96C1336.46 67.32 1338.06 65 1340.06 63C1342.14 61 1344.5 59.44 1347.14 58.32C1349.78 57.2 1352.62 56.64 1355.66 56.64C1358.78 56.64 1361.7 57.2 1364.42 58.32C1367.22 59.44 1369.66 61 1371.74 63C1373.82 65 1375.46 67.32 1376.66 69.96C1377.86 72.6 1378.46 75.44 1378.46 78.48Z" fill="black"/>
<path d="M510.159 238.92C504.239 238.92 498.999 238.08 494.439 236.4C489.959 234.64 486.159 232.2 483.039 229.08C479.999 225.88 477.679 222.04 476.079 217.56C474.479 213.08 473.679 208.08 473.679 202.56V138.24H463.119C461.199 138.24 459.559 137.64 458.199 136.44C456.839 135.16 456.159 133.32 456.159 130.92V116.4L475.959 112.56L483.279 82.2C484.239 78.36 486.959 76.44 491.439 76.44H510.879V112.8H541.719V138.24H510.879V200.04C510.879 202.92 511.559 205.32 512.919 207.24C514.359 209.08 516.399 210 519.039 210C520.399 210 521.519 209.88 522.399 209.64C523.359 209.32 524.159 209 524.799 208.68C525.519 208.28 526.159 207.96 526.719 207.72C527.359 207.4 528.079 207.24 528.879 207.24C529.999 207.24 530.879 207.52 531.519 208.08C532.239 208.56 532.959 209.36 533.679 210.48L544.959 228.12C540.159 231.72 534.759 234.44 528.759 236.28C522.759 238.04 516.559 238.92 510.159 238.92ZM621.948 186.36C614.508 186.68 608.388 187.32 603.588 188.28C598.788 189.24 594.988 190.44 592.188 191.88C589.388 193.32 587.428 194.96 586.308 196.8C585.268 198.64 584.748 200.64 584.748 202.8C584.748 207.04 585.908 210.04 588.228 211.8C590.548 213.48 593.948 214.32 598.428 214.32C603.228 214.32 607.428 213.48 611.028 211.8C614.628 210.12 618.268 207.4 621.948 203.64V186.36ZM554.988 129.84C562.508 123.2 570.828 118.28 579.948 115.08C589.148 111.8 598.988 110.16 609.468 110.16C616.988 110.16 623.748 111.4 629.748 113.88C635.828 116.28 640.948 119.68 645.108 124.08C649.348 128.4 652.588 133.56 654.828 139.56C657.068 145.56 658.188 152.12 658.188 159.24V237H641.148C637.628 237 634.948 236.52 633.108 235.56C631.348 234.6 629.868 232.6 628.668 229.56L626.028 222.72C622.908 225.36 619.908 227.68 617.028 229.68C614.148 231.68 611.148 233.4 608.028 234.84C604.988 236.2 601.708 237.2 598.188 237.84C594.748 238.56 590.908 238.92 586.668 238.92C580.988 238.92 575.828 238.2 571.188 236.76C566.548 235.24 562.588 233.04 559.308 230.16C556.108 227.28 553.628 223.72 551.868 219.48C550.108 215.16 549.228 210.2 549.228 204.6C549.228 200.12 550.348 195.6 552.588 191.04C554.828 186.4 558.708 182.2 564.228 178.44C569.748 174.6 577.188 171.4 586.548 168.84C595.908 166.28 607.708 164.84 621.948 164.52V159.24C621.948 151.96 620.428 146.72 617.388 143.52C614.428 140.24 610.188 138.6 604.668 138.6C600.268 138.6 596.668 139.08 593.868 140.04C591.068 141 588.548 142.08 586.308 143.28C584.148 144.48 582.028 145.56 579.948 146.52C577.868 147.48 575.388 147.96 572.508 147.96C569.948 147.96 567.788 147.32 566.028 146.04C564.268 144.76 562.828 143.24 561.708 141.48L554.988 129.84ZM719.167 57.36V158.04H724.687C727.007 158.04 728.767 157.72 729.967 157.08C731.167 156.36 732.367 155.2 733.567 153.6L757.087 118.56C758.527 116.56 760.167 115.08 762.007 114.12C763.847 113.08 766.207 112.56 769.087 112.56H803.167L771.007 156.84C767.967 160.84 764.367 164.12 760.207 166.68C762.047 168.04 763.727 169.64 765.247 171.48C766.767 173.24 768.207 175.24 769.567 177.48L804.607 237H771.007C768.207 237 765.807 236.56 763.807 235.68C761.807 234.72 760.127 233.08 758.767 230.76L735.247 186.72C734.127 184.72 732.967 183.44 731.767 182.88C730.567 182.24 728.767 181.92 726.367 181.92H719.167V237H681.967V57.36H719.167ZM880.23 186.36C872.79 186.68 866.67 187.32 861.87 188.28C857.07 189.24 853.27 190.44 850.47 191.88C847.67 193.32 845.71 194.96 844.59 196.8C843.55 198.64 843.03 200.64 843.03 202.8C843.03 207.04 844.19 210.04 846.51 211.8C848.83 213.48 852.23 214.32 856.71 214.32C861.51 214.32 865.71 213.48 869.31 211.8C872.91 210.12 876.55 207.4 880.23 203.64V186.36ZM813.27 129.84C820.79 123.2 829.11 118.28 838.23 115.08C847.43 111.8 857.27 110.16 867.75 110.16C875.27 110.16 882.03 111.4 888.03 113.88C894.11 116.28 899.23 119.68 903.39 124.08C907.63 128.4 910.87 133.56 913.11 139.56C915.35 145.56 916.47 152.12 916.47 159.24V237H899.43C895.91 237 893.23 236.52 891.39 235.56C889.63 234.6 888.15 232.6 886.95 229.56L884.31 222.72C881.19 225.36 878.19 227.68 875.31 229.68C872.43 231.68 869.43 233.4 866.31 234.84C863.27 236.2 859.99 237.2 856.47 237.84C853.03 238.56 849.19 238.92 844.95 238.92C839.27 238.92 834.11 238.2 829.47 236.76C824.83 235.24 820.87 233.04 817.59 230.16C814.39 227.28 811.91 223.72 810.15 219.48C808.39 215.16 807.51 210.2 807.51 204.6C807.51 200.12 808.63 195.6 810.87 191.04C813.11 186.4 816.99 182.2 822.51 178.44C828.03 174.6 835.47 171.4 844.83 168.84C854.19 166.28 865.99 164.84 880.23 164.52V159.24C880.23 151.96 878.71 146.72 875.67 143.52C872.71 140.24 868.47 138.6 862.95 138.6C858.55 138.6 854.95 139.08 852.15 140.04C849.35 141 846.83 142.08 844.59 143.28C842.43 144.48 840.31 145.56 838.23 146.52C836.15 147.48 833.67 147.96 830.79 147.96C828.23 147.96 826.07 147.32 824.31 146.04C822.55 144.76 821.11 143.24 819.99 141.48L813.27 129.84ZM975.048 131.76C978.888 125.04 983.288 119.76 988.248 115.92C993.288 112.08 999.048 110.16 1005.53 110.16C1011.13 110.16 1015.69 111.48 1019.21 114.12L1016.81 141.48C1016.41 143.24 1015.73 144.44 1014.77 145.08C1013.89 145.72 1012.65 146.04 1011.05 146.04C1010.41 146.04 1009.57 146 1008.53 145.92C1007.49 145.84 1006.41 145.76 1005.29 145.68C1004.17 145.52 1003.01 145.4 1001.81 145.32C1000.69 145.16 999.648 145.08 998.688 145.08C993.248 145.08 988.888 146.52 985.608 149.4C982.408 152.28 979.688 156.28 977.448 161.4V237H940.248V112.56H962.328C964.168 112.56 965.688 112.72 966.888 113.04C968.168 113.36 969.208 113.88 970.008 114.6C970.888 115.24 971.528 116.12 971.928 117.24C972.408 118.36 972.808 119.72 973.128 121.32L975.048 131.76ZM1094.92 186.36C1087.48 186.68 1081.36 187.32 1076.56 188.28C1071.76 189.24 1067.96 190.44 1065.16 191.88C1062.36 193.32 1060.4 194.96 1059.28 196.8C1058.24 198.64 1057.72 200.64 1057.72 202.8C1057.72 207.04 1058.88 210.04 1061.2 211.8C1063.52 213.48 1066.92 214.32 1071.4 214.32C1076.2 214.32 1080.4 213.48 1084 211.8C1087.6 210.12 1091.24 207.4 1094.92 203.64V186.36ZM1027.96 129.84C1035.48 123.2 1043.8 118.28 1052.92 115.08C1062.12 111.8 1071.96 110.16 1082.44 110.16C1089.96 110.16 1096.72 111.4 1102.72 113.88C1108.8 116.28 1113.92 119.68 1118.08 124.08C1122.32 128.4 1125.56 133.56 1127.8 139.56C1130.04 145.56 1131.16 152.12 1131.16 159.24V237H1114.12C1110.6 237 1107.92 236.52 1106.08 235.56C1104.32 234.6 1102.84 232.6 1101.64 229.56L1099 222.72C1095.88 225.36 1092.88 227.68 1090 229.68C1087.12 231.68 1084.12 233.4 1081 234.84C1077.96 236.2 1074.68 237.2 1071.16 237.84C1067.72 238.56 1063.88 238.92 1059.64 238.92C1053.96 238.92 1048.8 238.2 1044.16 236.76C1039.52 235.24 1035.56 233.04 1032.28 230.16C1029.08 227.28 1026.6 223.72 1024.84 219.48C1023.08 215.16 1022.2 210.2 1022.2 204.6C1022.2 200.12 1023.32 195.6 1025.56 191.04C1027.8 186.4 1031.68 182.2 1037.2 178.44C1042.72 174.6 1050.16 171.4 1059.52 168.84C1068.88 166.28 1080.68 164.84 1094.92 164.52V159.24C1094.92 151.96 1093.4 146.72 1090.36 143.52C1087.4 140.24 1083.16 138.6 1077.64 138.6C1073.24 138.6 1069.64 139.08 1066.84 140.04C1064.04 141 1061.52 142.08 1059.28 143.28C1057.12 144.48 1055 145.56 1052.92 146.52C1050.84 147.48 1048.36 147.96 1045.48 147.96C1042.92 147.96 1040.76 147.32 1039 146.04C1037.24 144.76 1035.8 143.24 1034.68 141.48L1027.96 129.84ZM1149.9 218.16C1149.9 215.28 1150.42 212.6 1151.46 210.12C1152.58 207.64 1154.06 205.48 1155.9 203.64C1157.82 201.8 1160.06 200.36 1162.62 199.32C1165.18 198.2 1167.98 197.64 1171.02 197.64C1173.98 197.64 1176.74 198.2 1179.3 199.32C1181.86 200.36 1184.1 201.8 1186.02 203.64C1187.94 205.48 1189.42 207.64 1190.46 210.12C1191.58 212.6 1192.14 215.28 1192.14 218.16C1192.14 221.04 1191.58 223.76 1190.46 226.32C1189.42 228.8 1187.94 230.96 1186.02 232.8C1184.1 234.64 1181.86 236.08 1179.3 237.12C1176.74 238.16 1173.98 238.68 1171.02 238.68C1167.98 238.68 1165.18 238.16 1162.62 237.12C1160.06 236.08 1157.82 234.64 1155.9 232.8C1154.06 230.96 1152.58 228.8 1151.46 226.32C1150.42 223.76 1149.9 221.04 1149.9 218.16ZM1276.56 186.36C1269.12 186.68 1263 187.32 1258.2 188.28C1253.4 189.24 1249.6 190.44 1246.8 191.88C1244 193.32 1242.04 194.96 1240.92 196.8C1239.88 198.64 1239.36 200.64 1239.36 202.8C1239.36 207.04 1240.52 210.04 1242.84 211.8C1245.16 213.48 1248.56 214.32 1253.04 214.32C1257.84 214.32 1262.04 213.48 1265.64 211.8C1269.24 210.12 1272.88 207.4 1276.56 203.64V186.36ZM1209.6 129.84C1217.12 123.2 1225.44 118.28 1234.56 115.08C1243.76 111.8 1253.6 110.16 1264.08 110.16C1271.6 110.16 1278.36 111.4 1284.36 113.88C1290.44 116.28 1295.56 119.68 1299.72 124.08C1303.96 128.4 1307.2 133.56 1309.44 139.56C1311.68 145.56 1312.8 152.12 1312.8 159.24V237H1295.76C1292.24 237 1289.56 236.52 1287.72 235.56C1285.96 234.6 1284.48 232.6 1283.28 229.56L1280.64 222.72C1277.52 225.36 1274.52 227.68 1271.64 229.68C1268.76 231.68 1265.76 233.4 1262.64 234.84C1259.6 236.2 1256.32 237.2 1252.8 237.84C1249.36 238.56 1245.52 238.92 1241.28 238.92C1235.6 238.92 1230.44 238.2 1225.8 236.76C1221.16 235.24 1217.2 233.04 1213.92 230.16C1210.72 227.28 1208.24 223.72 1206.48 219.48C1204.72 215.16 1203.84 210.2 1203.84 204.6C1203.84 200.12 1204.96 195.6 1207.2 191.04C1209.44 186.4 1213.32 182.2 1218.84 178.44C1224.36 174.6 1231.8 171.4 1241.16 168.84C1250.52 166.28 1262.32 164.84 1276.56 164.52V159.24C1276.56 151.96 1275.04 146.72 1272 143.52C1269.04 140.24 1264.8 138.6 1259.28 138.6C1254.88 138.6 1251.28 139.08 1248.48 140.04C1245.68 141 1243.16 142.08 1240.92 143.28C1238.76 144.48 1236.64 145.56 1234.56 146.52C1232.48 147.48 1230 147.96 1227.12 147.96C1224.56 147.96 1222.4 147.32 1220.64 146.04C1218.88 144.76 1217.44 143.24 1216.32 141.48L1209.6 129.84ZM1374.62 112.56V237H1337.42V112.56H1374.62ZM1378.46 78.48C1378.46 81.44 1377.86 84.24 1376.66 86.88C1375.46 89.44 1373.82 91.72 1371.74 93.72C1369.66 95.64 1367.22 97.2 1364.42 98.4C1361.7 99.52 1358.78 100.08 1355.66 100.08C1352.62 100.08 1349.78 99.52 1347.14 98.4C1344.5 97.2 1342.14 95.64 1340.06 93.72C1338.06 91.72 1336.46 89.44 1335.26 86.88C1334.14 84.24 1333.58 81.44 1333.58 78.48C1333.58 75.44 1334.14 72.6 1335.26 69.96C1336.46 67.32 1338.06 65 1340.06 63C1342.14 61 1344.5 59.44 1347.14 58.32C1349.78 57.2 1352.62 56.64 1355.66 56.64C1358.78 56.64 1361.7 57.2 1364.42 58.32C1367.22 59.44 1369.66 61 1371.74 63C1373.82 65 1375.46 67.32 1376.66 69.96C1377.86 72.6 1378.46 75.44 1378.46 78.48Z" fill="#D91009"/>
</svg>
