<svg width="1000" height="1000" viewBox="0 0 1000 1000" fill="none" xmlns="http://www.w3.org/2000/svg">
<g clip-path="url(#clip0_412_4)">
<path d="M574.996 547.836L472.686 516.198L103.837 887.394L538.323 664.634L574.996 547.836Z" fill="#D91009"/>
<path d="M244.556 520.078L288.106 487.881L321.479 474.282L349.227 477.848L461.434 512.772L99.6006 876.906" fill="#D91009"/>
<path d="M0 112L375.135 435.792L353.672 467.989L320.056 463.549L283.903 478.267L0 112Z" fill="#D91009"/>
<path d="M440.945 355.246L363.883 471.59L470.116 504.452L440.945 355.246Z" fill="#D91009"/>
<path d="M578.33 537.907L481.438 508.052L450.773 351.191L578.33 537.907Z" fill="#D91009"/>
<path d="M613.995 703.124L552.839 652.224L585.657 548.745L609.932 583.984L613.995 703.124Z" fill="#D91009"/>
<path d="M849.141 408.803L865.706 461.347L624.414 703.124L619.934 568.602L849.141 408.803Z" fill="#D91009"/>
<path d="M859.073 406.216L908.317 421.563L1000 590.101L883.556 468.094L875.499 457.397L859.073 406.216Z" fill="#D91009"/>
<path d="M608.578 563.672L671.193 520.043L660.392 475.191L492.273 360.175L466.713 342.556L459.663 345.772L608.578 563.672Z" fill="#D91009"/>
<path d="M800.938 171.221L488.626 344.933L571.662 401.916L800.938 171.221Z" fill="#D91009"/>
<path d="M660.566 462.745L580.622 407.859L809.064 177.898L727.939 407.265L660.566 462.745Z" fill="#D91009"/>
</g>
<defs>
<clipPath id="clip0_412_4">
<rect width="1000" height="1000" fill="white"/>
</clipPath>
</defs>
</svg>
