<svg width="110" height="28" viewBox="0 0 110 28" fill="none" xmlns="http://www.w3.org/2000/svg">
<path d="M7.24609 4.19922H7.63672V9.04297H13.8867V12.6758H7.63672V21.0938C7.63672 21.9141 7.88411 22.5781 8.37891 23.0859C8.8737 23.5938 9.55078 23.8477 10.4102 23.8477C11.5299 23.8477 12.819 23.444 14.2773 22.6367V26.4844C12.5456 27.2526 10.918 27.6367 9.39453 27.6367C7.33724 27.6367 5.72917 27.0768 4.57031 25.957C3.42448 24.8372 2.85156 23.3203 2.85156 21.4062V12.6758H0V11.8945L7.24609 4.19922ZM23.5742 8.69141C25.918 8.69141 27.7083 9.19271 28.9453 10.1953C30.1823 11.1849 30.8008 12.5716 30.8008 14.3555V23.2812C30.8008 23.9714 31.0807 24.3164 31.6406 24.3164C31.875 24.3164 32.2005 24.2188 32.6172 24.0234C33.0469 23.8151 33.4049 23.5807 33.6914 23.3203V26.0938C32.0117 27.1224 30.4753 27.6367 29.082 27.6367C28.2227 27.6367 27.5586 27.4935 27.0898 27.207C26.6341 26.9206 26.3151 26.4128 26.1328 25.6836C24.2969 26.9857 22.4544 27.6367 20.6055 27.6367C19.2904 27.6367 18.1576 27.194 17.207 26.3086C16.2695 25.4232 15.8008 24.362 15.8008 23.125C15.8008 21.5495 16.2695 20.306 17.207 19.3945C18.1445 18.4831 19.7852 17.6888 22.1289 17.0117L26.0156 15.8789V15.0391C26.0156 13.2552 24.9349 12.3633 22.7734 12.3633C21.6667 12.3633 20.5664 12.6172 19.4727 13.125C18.3789 13.6328 17.3828 14.3815 16.4844 15.3711V11.0547C18.4766 9.47917 20.8398 8.69141 23.5742 8.69141ZM20.6445 22.4023C20.6445 23.0664 20.8529 23.6003 21.2695 24.0039C21.6992 24.4076 22.2266 24.6094 22.8516 24.6094C23.9062 24.6094 24.9609 24.1276 26.0156 23.1641V18.3594C24.6745 18.8151 23.6198 19.2448 22.8516 19.6484C22.0964 20.0521 21.5365 20.4622 21.1719 20.8789C20.8203 21.2956 20.6445 21.8034 20.6445 22.4023ZM41.1523 0V27.2852H36.3477V0H41.1523ZM54.3945 9.04297L46.9922 18.0469L55.3125 27.2852H49.2188L41.2305 18.0469L48.75 9.04297H54.3945ZM63.6523 8.69141C65.9961 8.69141 67.7865 9.19271 69.0234 10.1953C70.2604 11.1849 70.8789 12.5716 70.8789 14.3555V23.2812C70.8789 23.9714 71.1589 24.3164 71.7188 24.3164C71.9531 24.3164 72.2786 24.2188 72.6953 24.0234C73.125 23.8151 73.4831 23.5807 73.7695 23.3203V26.0938C72.0898 27.1224 70.5534 27.6367 69.1602 27.6367C68.3008 27.6367 67.6367 27.4935 67.168 27.207C66.7122 26.9206 66.3932 26.4128 66.2109 25.6836C64.375 26.9857 62.5326 27.6367 60.6836 27.6367C59.3685 27.6367 58.2357 27.194 57.2852 26.3086C56.3477 25.4232 55.8789 24.362 55.8789 23.125C55.8789 21.5495 56.3477 20.306 57.2852 19.3945C58.2227 18.4831 59.8633 17.6888 62.207 17.0117L66.0938 15.8789V15.0391C66.0938 13.2552 65.013 12.3633 62.8516 12.3633C61.7448 12.3633 60.6445 12.6172 59.5508 13.125C58.457 13.6328 57.4609 14.3815 56.5625 15.3711V11.0547C58.5547 9.47917 60.918 8.69141 63.6523 8.69141ZM60.7227 22.4023C60.7227 23.0664 60.931 23.6003 61.3477 24.0039C61.7773 24.4076 62.3047 24.6094 62.9297 24.6094C63.9844 24.6094 65.0391 24.1276 66.0938 23.1641V18.3594C64.7526 18.8151 63.6979 19.2448 62.9297 19.6484C62.1745 20.0521 61.6146 20.4622 61.25 20.8789C60.8984 21.2956 60.7227 21.8034 60.7227 22.4023ZM86.8555 8.69141C87.4935 8.69141 88.1185 8.83464 88.7305 9.12109C89.3555 9.40755 90.0781 9.88932 90.8984 10.5664L89.1797 14.7656C87.7865 13.724 86.6667 13.2031 85.8203 13.2031C85.0781 13.2031 84.3424 13.4831 83.6133 14.043C82.8971 14.5898 82.3177 15.319 81.875 16.2305C81.4453 17.1419 81.2305 18.0534 81.2305 18.9648V27.2852H76.4258V9.04297H81.2305V13.6914H81.3086C82.181 11.9336 83.0599 10.6641 83.9453 9.88281C84.8307 9.08854 85.8008 8.69141 86.8555 8.69141ZM99.707 8.69141C102.051 8.69141 103.841 9.19271 105.078 10.1953C106.315 11.1849 106.934 12.5716 106.934 14.3555V23.2812C106.934 23.9714 107.214 24.3164 107.773 24.3164C108.008 24.3164 108.333 24.2188 108.75 24.0234C109.18 23.8151 109.538 23.5807 109.824 23.3203V26.0938C108.145 27.1224 106.608 27.6367 105.215 27.6367C104.355 27.6367 103.691 27.4935 103.223 27.207C102.767 26.9206 102.448 26.4128 102.266 25.6836C100.43 26.9857 98.5872 27.6367 96.7383 27.6367C95.4232 27.6367 94.2904 27.194 93.3398 26.3086C92.4023 25.4232 91.9336 24.362 91.9336 23.125C91.9336 21.5495 92.4023 20.306 93.3398 19.3945C94.2773 18.4831 95.918 17.6888 98.2617 17.0117L102.148 15.8789V15.0391C102.148 13.2552 101.068 12.3633 98.9062 12.3633C97.7995 12.3633 96.6992 12.6172 95.6055 13.125C94.5117 13.6328 93.5156 14.3815 92.6172 15.3711V11.0547C94.6094 9.47917 96.9727 8.69141 99.707 8.69141ZM96.7773 22.4023C96.7773 23.0664 96.9857 23.6003 97.4023 24.0039C97.832 24.4076 98.3594 24.6094 98.9844 24.6094C100.039 24.6094 101.094 24.1276 102.148 23.1641V18.3594C100.807 18.8151 99.7526 19.2448 98.9844 19.6484C98.2292 20.0521 97.6693 20.4622 97.3047 20.8789C96.9531 21.2956 96.7773 21.8034 96.7773 22.4023Z" fill="black"/>
</svg>
