<svg width="1024" height="1024" viewBox="0 0 1024 1024" fill="none" xmlns="http://www.w3.org/2000/svg">
<rect width="1024" height="1024" rx="220" fill="white"/>
<path d="M374.813 474.022L584.592 536.62L536.561 672.553L139.7 842.434L256.254 513.25L345.963 469.268L374.813 474.022Z" fill="#D91009"/>
<path d="M906.846 418.905L959.115 528.963L866.773 437.63L628.435 672.527L575.367 628.763L603.919 547.957L625.666 566.08L691.148 517.532L848.664 401.235L906.846 418.905Z" fill="#D91009"/>
<path d="M656.947 460.087L671.656 504.597L626.46 538.104L607.212 522.065L503.512 355.826L656.947 460.087Z" fill="#D91009"/>
<path d="M574.085 510.526L394.143 456.83L466.694 338.373L574.085 510.526Z" fill="#D91009"/>
<path d="M384.334 430.722L371.778 451.225L342.596 446.416L315.659 459.621L108.171 194.841L384.334 430.722Z" fill="#D91009"/>
<path d="M736.268 399.026L666.638 440.072L525.048 343.862L797.705 181.565L736.268 399.026Z" fill="#D91009"/>
</svg>
